<svg width="110" height="101" viewBox="0 0 110 101" fill="none" xmlns="http://www.w3.org/2000/svg">
<path d="M42.3909 17.6694C45.6717 16.4072 48 13.2255 48 9.5C48 4.66751 44.0825 0.75 39.25 0.75C34.4175 0.75 30.5 4.66751 30.5 9.5C30.5 13.9657 33.8455 17.6501 38.1669 18.1836L34.2647 49.75L15.4538 33.4121C17.1739 31.8143 18.25 29.5328 18.25 27C18.25 22.1675 14.3325 18.25 9.5 18.25C4.66751 18.25 0.75 22.1675 0.75 27C0.75 31.8325 4.66751 35.75 9.5 35.75C10.3507 35.75 11.173 35.6286 11.9506 35.4022L21.75 69L31.8836 85.5823L21.75 87.375V100.5L88.3846 100.5V87.375L78.1209 85.5749L88.25 69L98.0494 35.4022C98.827 35.6286 99.6493 35.75 100.5 35.75C105.332 35.75 109.25 31.8325 109.25 27C109.25 22.1675 105.332 18.25 100.5 18.25C95.6675 18.25 91.75 22.1675 91.75 27C91.75 29.5328 92.8262 31.8143 94.5462 33.4121L75.7353 49.75L71.8331 18.1836C76.1545 17.6501 79.5 13.9657 79.5 9.5C79.5 4.66751 75.5825 0.75 70.75 0.75C65.9175 0.75 62 4.66751 62 9.5C62 13.2255 64.3283 16.4072 67.6091 17.6694L55 46.25L42.3909 17.6694Z" fill="#7B61FF"/>
</svg>
